<?xml version="1.0"?>
<svg width="210.00000000000003" height="210.00000000000003" xmlns="http://www.w3.org/2000/svg" xmlns:svg="http://www.w3.org/2000/svg">
 <g>
  <title>Layer 1</title>
  <g id="background">
   <rect id="svg_1" fill="transparent" height="210" width="210"/>
  </g>
  <g stroke="null" transform="translate(15.75,16.3125) scale(30) " id="polkadots">
   <circle stroke="null" id="svg_2" fill="white" r="0.394531" cy="0.400781" cx="-0.032813"/>
   <circle stroke="null" id="svg_3" fill="white" r="0.394531" cy="0.400781" cx="1.685937"/>
   <circle stroke="null" id="svg_4" fill="white" r="0.394531" cy="0.400781" cx="3.404687"/>
   <circle stroke="null" id="svg_5" fill="white" r="0.394531" cy="0.400781" cx="5.123437"/>
   <circle stroke="null" id="svg_6" fill="white" r="0.394531" cy="1.189844" cx="0.826562"/>
   <circle stroke="null" id="svg_7" fill="white" r="0.394531" cy="1.189844" cx="2.545312"/>
   <circle stroke="null" id="svg_8" fill="white" r="0.394531" cy="1.189844" cx="4.264062"/>
   <circle stroke="null" id="svg_9" fill="white" r="0.394531" cy="1.189844" cx="5.982812"/>
   <circle stroke="null" id="svg_10" fill="white" r="0.394531" cy="1.978906" cx="-0.032813"/>
   <circle stroke="null" id="svg_11" fill="white" r="0.394531" cy="1.978906" cx="1.685937"/>
   <circle stroke="null" id="svg_12" fill="white" r="0.394531" cy="1.978906" cx="3.404687"/>
   <circle stroke="null" id="svg_13" fill="white" r="0.394531" cy="1.978906" cx="5.123437"/>
   <circle stroke="null" id="svg_14" fill="white" r="0.394531" cy="2.767969" cx="0.826562"/>
   <circle stroke="null" id="svg_15" fill="white" r="0.394531" cy="2.767969" cx="2.545312"/>
   <circle stroke="null" id="svg_16" fill="white" r="0.394531" cy="2.767969" cx="4.264062"/>
   <circle stroke="null" id="svg_17" fill="white" r="0.394531" cy="2.767969" cx="5.982812"/>
   <circle stroke="null" id="svg_18" fill="white" r="0.394531" cy="3.557031" cx="-0.032813"/>
   <circle stroke="null" id="svg_19" fill="white" r="0.394531" cy="3.557031" cx="1.685937"/>
   <circle stroke="null" id="svg_20" fill="white" r="0.394531" cy="3.557031" cx="3.404687"/>
   <circle stroke="null" id="svg_21" fill="white" r="0.394531" cy="3.557031" cx="5.123437"/>
   <circle stroke="null" id="svg_22" fill="white" r="0.394531" cy="4.346094" cx="0.826562"/>
   <circle stroke="null" id="svg_23" fill="white" r="0.394531" cy="4.346094" cx="2.545312"/>
   <circle stroke="null" id="svg_24" fill="white" r="0.394531" cy="4.346094" cx="4.264062"/>
   <circle stroke="null" id="svg_25" fill="white" r="0.394531" cy="4.346094" cx="5.982812"/>
   <circle stroke="null" id="svg_26" fill="white" r="0.394531" cy="5.135156" cx="-0.032813"/>
   <circle stroke="null" id="svg_27" fill="white" r="0.394531" cy="5.135156" cx="1.685937"/>
   <circle stroke="null" id="svg_28" fill="white" r="0.394531" cy="5.135156" cx="3.404687"/>
   <circle stroke="null" id="svg_29" fill="white" r="0.394531" cy="5.135156" cx="5.123437"/>
   <circle stroke="null" id="svg_30" fill="white" r="0.394531" cy="5.924219" cx="0.826562"/>
   <circle stroke="null" id="svg_31" fill="white" r="0.394531" cy="5.924219" cx="2.545312"/>
   <circle stroke="null" id="svg_32" fill="white" r="0.394531" cy="5.924219" cx="4.264062"/>
   <circle stroke="null" id="svg_33" fill="white" r="0.394531" cy="5.924219" cx="5.982812"/>
  </g>
 </g>
</svg>